<svg width="198" height="50" viewBox="0 0 198 50" fill="none" xmlns="http://www.w3.org/2000/svg">
<path d="M28.2392 21.1725C28.346 21.3085 28.4687 21.4312 28.6047 21.5381C30.3659 22.9219 32.8141 21.0544 31.9449 18.9901L27.6792 8.85901C27.1338 7.56354 27.427 6.06679 28.4209 5.07287L32.4812 1.01258C33.8313 -0.337526 36.0202 -0.337526 37.3703 1.01258L47.082 10.7242C48.2914 11.9337 48.4346 13.8457 47.4189 15.2218L42.2099 22.2791C39.6205 25.7873 40.2876 30.7183 43.7161 33.4124L48.159 36.9034C49.7887 38.184 49.9331 40.6008 48.4676 42.0663L41.7554 48.7785C40.2899 50.244 37.873 50.0996 36.5925 48.4699L21.2243 28.9121C21.1193 28.7785 20.9987 28.6579 20.8651 28.5529C19.135 27.1936 16.7301 29.0283 17.5839 31.0561L21.8517 41.1919C22.3972 42.4874 22.104 43.9841 21.11 44.9781L17.1007 48.9874C15.7506 50.3375 13.5616 50.3375 12.2115 48.9874L2.4988 39.2747C1.28984 38.0657 1.14617 36.1546 2.16079 34.7785L7.2851 27.8284C9.87189 24.32 9.20359 19.3911 5.77595 16.6982L1.32139 13.1984C-0.308443 11.9179 -0.452985 9.50094 1.01263 8.03533L7.72438 1.32357C9.19 -0.142045 11.607 0.00250414 12.8875 1.63236L28.2392 21.1725Z" fill="#F5F5F3"/>
<path d="M185.627 41.6686C183.356 41.6686 181.303 41.1478 179.468 40.1062C177.634 39.0356 176.178 37.5745 175.1 35.7228C174.023 33.8711 173.484 31.7734 173.484 29.4298C173.484 27.0862 174.009 25.003 175.057 23.1802C176.134 21.3574 177.59 19.9108 179.425 18.8402C181.259 17.7697 183.327 17.2345 185.627 17.2345C187.898 17.2345 189.951 17.7697 191.786 18.8402C193.62 19.8818 195.062 21.314 196.11 23.1368C197.187 24.9596 197.726 27.0573 197.726 29.4298C197.726 31.8023 197.173 33.9145 196.066 35.7662C194.96 37.589 193.489 39.0356 191.655 40.1062C189.849 41.1478 187.84 41.6686 185.627 41.6686ZM185.627 37.7626C187.083 37.7626 188.393 37.4009 189.558 36.6776C190.752 35.9542 191.684 34.956 192.354 33.683C193.052 32.4099 193.402 30.9922 193.402 29.4298C193.402 27.8385 193.052 26.4352 192.354 25.22C191.684 23.9759 190.752 22.9922 189.558 22.2688C188.393 21.5166 187.083 21.1404 185.627 21.1404C184.142 21.1404 182.802 21.5166 181.609 22.2688C180.444 22.9922 179.512 23.9759 178.813 25.22C178.114 26.4352 177.765 27.8385 177.765 29.4298C177.765 30.9922 178.114 32.4099 178.813 33.683C179.512 34.956 180.444 35.9542 181.609 36.6776C182.802 37.4009 184.142 37.7626 185.627 37.7626Z" fill="#F5F5F3"/>
<path d="M151.257 41.1852V21.6553H146.758V17.7927H151.257V16.1435C151.257 14.4654 151.621 13.0476 152.349 11.8903C153.106 10.733 154.096 9.85051 155.319 9.24291C156.571 8.63531 157.954 8.33151 159.468 8.33151C159.789 8.33151 160.138 8.36045 160.517 8.41831C160.924 8.44725 161.259 8.49065 161.521 8.54851V12.1507C161.288 12.0928 161.012 12.0639 160.691 12.0639C160.371 12.035 160.123 12.0205 159.949 12.0205C158.609 12.0205 157.503 12.3388 156.629 12.9753C155.785 13.6118 155.362 14.6679 155.362 16.1435V17.7927H167.592V21.6553H155.362V41.1852H151.257ZM166.107 41.1852V8.33151H170.213V41.1852H166.107Z" fill="#F5F5F3"/>
<path d="M133.096 41.6686C130.824 41.6686 128.772 41.1478 126.937 40.1062C125.103 39.0356 123.647 37.5745 122.569 35.7228C121.492 33.8711 120.953 31.7734 120.953 29.4298C120.953 27.0862 121.477 25.003 122.526 23.1802C123.603 21.3574 125.059 19.9108 126.893 18.8402C128.728 17.7697 130.795 17.2345 133.096 17.2345C135.367 17.2345 137.42 17.7697 139.254 18.8402C141.089 19.8818 142.53 21.314 143.579 23.1368C144.656 24.9596 145.195 27.0573 145.195 29.4298C145.195 31.8023 144.641 33.9145 143.535 35.7662C142.428 37.589 140.958 39.0356 139.123 40.1062C137.318 41.1478 135.309 41.6686 133.096 41.6686ZM133.096 37.7626C134.552 37.7626 135.862 37.4009 137.027 36.6776C138.221 35.9542 139.153 34.956 139.822 33.683C140.521 32.4099 140.871 30.9922 140.871 29.4298C140.871 27.8385 140.521 26.4352 139.822 25.22C139.153 23.9759 138.221 22.9922 137.027 22.2688C135.862 21.5166 134.552 21.1404 133.096 21.1404C131.611 21.1404 130.271 21.5166 129.077 22.2688C127.913 22.9922 126.981 23.9759 126.282 25.22C125.583 26.4352 125.234 27.8385 125.234 29.4298C125.234 30.9922 125.583 32.4099 126.282 33.683C126.981 34.956 127.913 35.9542 129.077 36.6776C130.271 37.4009 131.611 37.7626 133.096 37.7626Z" fill="#F5F5F3"/>
<path d="M107.418 41.6686C105.147 41.6686 103.123 41.1333 101.347 40.0628C99.5706 38.9922 98.1729 37.5311 97.1538 35.6794C96.1346 33.7987 95.625 31.7011 95.625 29.3864C95.625 27.0428 96.12 24.9596 97.1101 23.1368C98.1292 21.314 99.4978 19.8818 101.216 18.8402C102.963 17.7697 104.914 17.2345 107.069 17.2345C108.816 17.2345 110.359 17.5527 111.699 18.1892C113.067 18.7968 114.218 19.6359 115.149 20.7064C116.11 21.748 116.838 22.9488 117.333 24.3086C117.857 25.6396 118.119 27.0283 118.119 28.475C118.119 28.7933 118.09 29.1549 118.032 29.56C118.003 29.9361 117.959 30.2978 117.901 30.645H98.5951V27.173H115.542L113.621 28.7354C113.883 27.2309 113.737 25.8855 113.184 24.6992C112.631 23.513 111.815 22.5726 110.738 21.8782C109.66 21.1838 108.437 20.8366 107.069 20.8366C105.7 20.8366 104.448 21.1838 103.312 21.8782C102.177 22.5726 101.289 23.5708 100.648 24.8728C100.037 26.1459 99.789 27.6649 99.9055 29.4298C99.789 31.1369 100.051 32.6414 100.692 33.9434C101.361 35.2164 102.293 36.2146 103.487 36.938C104.71 37.6324 106.035 37.9796 107.462 37.9796C109.034 37.9796 110.359 37.6179 111.437 36.8946C112.514 36.1712 113.388 35.2454 114.057 34.117L117.464 35.853C116.998 36.9235 116.27 37.9072 115.28 38.8042C114.319 39.6722 113.169 40.3666 111.83 40.8874C110.519 41.4082 109.049 41.6686 107.418 41.6686Z" fill="#F5F5F3"/>
<path d="M66.4453 41.1446V8.81168H70.027L88.7214 34.9384L87.1053 35.112V8.81168H91.4295V41.1446H87.8478L69.2407 14.8443L70.7258 14.6707V41.1446H66.4453Z" fill="#F5F5F3"/>
</svg>
