<svg width="50" height="50" viewBox="0 0 50 50" fill="none" xmlns="http://www.w3.org/2000/svg">
<path d="M28.2392 21.1725C28.346 21.3085 28.4687 21.4312 28.6047 21.5381C30.3659 22.9219 32.8141 21.0544 31.9449 18.9901L27.6792 8.85901C27.1338 7.56354 27.427 6.06679 28.4209 5.07287L32.4812 1.01258C33.8313 -0.337526 36.0202 -0.337526 37.3703 1.01258L47.082 10.7242C48.2914 11.9337 48.4346 13.8457 47.4189 15.2218L42.2099 22.2791C39.6205 25.7873 40.2876 30.7183 43.7161 33.4124L48.159 36.9034C49.7887 38.184 49.9331 40.6008 48.4676 42.0663L41.7554 48.7785C40.2899 50.244 37.873 50.0996 36.5925 48.4699L21.2243 28.9121C21.1193 28.7785 20.9987 28.6579 20.8651 28.5529C19.135 27.1936 16.7301 29.0283 17.5839 31.0561L21.8517 41.1919C22.3972 42.4874 22.104 43.9841 21.11 44.9781L17.1007 48.9874C15.7506 50.3375 13.5616 50.3375 12.2115 48.9874L2.4988 39.2747C1.28984 38.0657 1.14617 36.1546 2.16079 34.7785L7.2851 27.8284C9.87189 24.32 9.20359 19.3911 5.77595 16.6982L1.32139 13.1984C-0.308443 11.9179 -0.452985 9.50094 1.01263 8.03533L7.72438 1.32357C9.19 -0.142045 11.607 0.00250414 12.8875 1.63236L28.2392 21.1725Z" fill="#030303"/>
</svg>
